<svg width="16" height="16" viewBox="0 0 16 16" fill="none" xmlns="http://www.w3.org/2000/svg">
<g clip-path="url(#clip0_92_766)">
<path d="M13.8333 8.00031C13.8333 4.77875 11.2218 2.1665 8.00034 2.16632C4.77868 2.16632 2.16635 4.77864 2.16635 8.00031C2.16653 11.2218 4.77878 13.8333 8.00034 13.8333C11.2217 13.8331 13.8332 11.2217 13.8333 8.00031ZM15.5003 8.00031C15.5002 12.1422 12.1422 15.5001 8.00034 15.5003C3.85831 15.5003 0.500512 12.1423 0.500336 8.00031C0.500336 3.85817 3.8582 0.500305 8.00034 0.500305C12.1423 0.500481 15.5003 3.85828 15.5003 8.00031Z" fill="#8A3216"/>
<path d="M7.167 8.00031V5.33331C7.167 4.87308 7.53977 4.50031 8.00001 4.50031C8.46025 4.50031 8.83302 4.87308 8.83302 5.33331V8.00031C8.83284 8.46039 8.46014 8.83331 8.00001 8.83331C7.53988 8.83331 7.16718 8.46039 7.167 8.00031Z" fill="#8A3216"/>
<path d="M8.00685 9.83364C8.46701 9.83373 8.83985 10.2065 8.83985 10.6666C8.83985 11.1268 8.46701 11.4996 8.00685 11.4997H8.00001C7.53977 11.4997 7.167 11.1269 7.167 10.6666C7.167 10.2064 7.53977 9.83364 8.00001 9.83364H8.00685Z" fill="#8A3216"/>
</g>
<defs>
<clipPath id="clip0_92_766">
<rect width="16" height="16" fill="white"/>
</clipPath>
</defs>
</svg>
